HIERARCHY
ROOT Hips
{
    OFFSET 0.000000 0.000000 0.000000
    CHANNELS 6 Xposition Yposition Zposition Zrotation Xrotation Yrotation
    JOINT Spine
    {
        OFFSET -0.000000 14.517291 0.000000
        CHANNELS 3 Zrotation Xrotation Yrotation
        JOINT Spine1
        {
            OFFSET -0.000000 37.558300 0.000000
            CHANNELS 3 Zrotation Xrotation Yrotation
            JOINT Neck
            {
                OFFSET -0.000000 37.404057 3.400369
                CHANNELS 3 Zrotation Xrotation Yrotation
                JOINT Head
                {
                    OFFSET -0.000000 24.785618 -3.540803
                    CHANNELS 3 Zrotation Xrotation Yrotation
                    End Site
                    {
                        OFFSET -0.000000 35.408028 0.000000
                    }
                }
            }
            JOINT LeftShoulder
            {
                OFFSET 6.992933 33.973492 -0.192664
                CHANNELS 3 Zrotation Xrotation Yrotation
                JOINT LeftArm
                {
                    OFFSET 21.527611 0.000000 0.000000
                    CHANNELS 3 Zrotation Xrotation Yrotation
                    JOINT LeftForeArm
                    {
                        OFFSET 56.353916 0.000000 0.000000
                        CHANNELS 3 Zrotation Xrotation Yrotation
                        JOINT LeftHand
                        {
                            OFFSET 47.774071 0.000000 0.000000
                            CHANNELS 3 Zrotation Xrotation Yrotation
                            End Site
                            {
                                OFFSET 26.556021 0.000000 0.000000
                            }
                        }
                    }
                }
            }
            JOINT RightShoulder
            {
                OFFSET -7.065357 33.973492 -0.192664
                CHANNELS 3 Zrotation Xrotation Yrotation
                JOINT RightArm
                {
                    OFFSET -21.527611 0.000000 0.000000
                    CHANNELS 3 Zrotation Xrotation Yrotation
                    JOINT RightForeArm
                    {
                        OFFSET -56.353916 0.000000 0.000000
                        CHANNELS 3 Zrotation Xrotation Yrotation
                        JOINT RightHand
                        {
                            OFFSET -47.774071 0.000000 0.000000
                            CHANNELS 3 Zrotation Xrotation Yrotation
                            End Site
                            {
                                OFFSET -26.556021 0.000000 0.000000
                            }
                        }
                    }
                }
            }
        }
    }
    JOINT LeftUpLeg
    {
        OFFSET 17.704014 0.000000 0.000000
        CHANNELS 3 Zrotation Xrotation Yrotation
        JOINT LeftLeg
        {
            OFFSET -0.000000 -81.181816 0.000000
            CHANNELS 3 Zrotation Xrotation Yrotation
            JOINT LeftFoot
            {
                OFFSET -0.000000 -62.821102 0.000000
                CHANNELS 3 Zrotation Xrotation Yrotation
                JOINT LeftToeBase
                {
                    OFFSET -0.000000 -11.507608 26.556021
                    CHANNELS 3 Zrotation Xrotation Yrotation
                    End Site
                    {
                        OFFSET -0.000000 0.000000 7.081605
                    }
                }
            }
        }
    }
    JOINT RightUpLeg
    {
        OFFSET -17.704014 0.000000 0.000000
        CHANNELS 3 Zrotation Xrotation Yrotation
        JOINT RightLeg
        {
            OFFSET -0.000000 -81.181816 0.000000
            CHANNELS 3 Zrotation Xrotation Yrotation
            JOINT RightFoot
            {
                OFFSET -0.000000 -62.821102 0.000000
                CHANNELS 3 Zrotation Xrotation Yrotation
                JOINT RightToeBase
                {
                    OFFSET -0.000000 -11.507608 26.556021
                    CHANNELS 3 Zrotation Xrotation Yrotation
                    End Site
                    {
                        OFFSET -0.000000 0.000000 7.081605
                    }
                }
            }
        }
    }
}
MOTION
Frames:    13
Frame Time:    0.008333
-31.405544    148.739090    -31.104588    0.045448    -0.948695    13.164368    -0.224559    4.046883    13.552328    -2.021429    2.524718    4.560732    -5.295704    5.303031    -11.703804    16.025000    -8.548727    -8.210077    1.248046    2.364935    -7.192544    -30.823206    18.002876    -58.619480    -3.736599    -30.606169    -110.499123    -14.790403    -33.030052    -19.378721    -0.568792    14.878373    4.623724    33.437069    14.101381    56.786537    -42.573009    -33.436520    33.121490    7.467220    -19.603527    32.500721    1.742104    -34.882233    -27.914400    -14.418834    36.852791    -20.154966    -6.522343    -10.971451    37.822964    0.000000    0.000000    0.000000    1.615540    6.675427    -24.679853    3.530454    35.852081    -6.103846    2.864022    -36.501881    -10.262383    0.000000    0.000000    0.000000    
-31.492937    148.731812    -31.146318    0.038916    -0.966962    13.246511    -0.225392    4.030927    13.545268    -2.027565    2.522995    4.558478    -5.308018    5.313542    -11.781187    16.073534    -8.560960    -8.278214    1.273981    2.298322    -7.178537    -30.797009    18.046131    -58.653217    -3.743492    -30.591875    -110.468956    -14.743125    -33.031677    -19.354317    -0.561912    14.869806    4.602130    33.469059    14.165537    56.700726    -42.609730    -33.433735    33.162479    7.492473    -19.564005    32.512424    1.756761    -34.887856    -27.910120    -14.406370    36.804874    -20.189791    -6.545736    -10.894873    37.809086    0.000000    0.000000    0.000000    1.663343    6.672420    -24.730846    3.552016    35.864456    -6.114362    2.822745    -36.505535    -10.299871    0.000000    0.000000    0.000000    
-31.575579    148.720642    -31.188562    0.035517    -0.981453    13.335388    -0.238431    4.020158    13.540633    -2.001112    2.500492    4.555811    -5.395890    5.351120    -11.870832    16.203751    -8.578322    -8.334391    1.259194    2.267609    -7.185901    -30.731659    18.081884    -58.692715    -3.738662    -30.621061    -110.427513    -14.716423    -33.058868    -19.317451    -0.578863    14.856826    4.596877    33.516876    14.245758    56.585106    -42.677689    -33.428474    33.190666    7.539936    -19.512836    32.488186    1.760608    -34.903687    -27.904654    -14.386012    36.774975    -20.255638    -6.575901    -10.829765    37.793697    0.000000    0.000000    0.000000    1.710117    6.665544    -24.797583    3.561005    35.875584    -6.148659    2.815397    -36.521164    -10.294468    0.000000    0.000000    0.000000    
-31.613714    148.710754    -31.224213    0.051706    -1.010031    13.442795    -0.198123    4.017220    13.525676    -2.054777    2.499591    4.552477    -5.418246    5.386659    -11.962236    16.261063    -8.592221    -8.415294    1.284604    2.301609    -7.205750    -30.675392    18.053480    -58.759560    -3.686125    -30.615606    -110.327431    -14.700639    -32.968098    -19.459179    -0.567850    14.867667    4.585434    33.578526    14.269455    56.467129    -42.688793    -33.415054    33.264935    7.544971    -19.466488    32.428123    1.707243    -34.896679    -27.969563    -14.377142    36.742279    -20.262833    -6.607033    -10.767983    37.778164    0.000000    0.000000    0.000000    1.713813    6.685326    -24.847713    3.617754    35.898815    -6.182417    2.771286    -36.539845    -10.337818    0.000000    0.000000    0.000000    
-31.688046    148.696945    -31.260336    0.052957    -1.015036    13.539501    -0.212285    3.995536    13.522114    -2.034374    2.485523    4.550436    -5.442463    5.402988    -12.046340    16.293314    -8.598312    -8.493917    1.300545    2.317694    -7.225877    -30.657625    18.004412    -58.805328    -3.712340    -30.573425    -110.315254    -14.653913    -32.968517    -19.421824    -0.568026    14.868784    4.575124    33.612843    14.325626    56.350235    -42.749229    -33.439857    33.299076    7.547196    -19.462744    32.388840    1.693776    -34.920990    -27.980581    -14.348286    36.722046    -20.348206    -6.638671    -10.714471    37.768120    0.000000    0.000000    0.000000    1.757179    6.665865    -24.921858    3.598421    35.925125    -6.195038    2.797317    -36.564758    -10.328925    0.000000    0.000000    0.000000    
-31.757259    148.679840    -31.292051    0.059532    -1.013561    13.644993    -0.210309    3.965411    13.511926    -2.058191    2.496405    4.547786    -5.485651    5.413293    -12.131421    16.397301    -8.605403    -8.555674    1.337819    2.287117    -7.231536    -30.653006    17.975636    -58.854343    -3.810176    -30.527515    -110.364937    -14.620941    -33.069603    -19.255667    -0.542180    14.858649    4.558737    33.691734    14.329882    56.241730    -42.750275    -33.430000    33.368835    7.517786    -19.432526    32.364895    1.682414    -34.965313    -28.008995    -14.337735    36.696465    -20.374447    -6.732008    -10.641008    37.659595    0.000000    0.000000    0.000000    1.790934    6.640946    -25.000237    3.599913    35.956520    -6.227721    2.770370    -36.586285    -10.356398    0.000000    0.000000    0.000000    
-31.821705    148.662140    -31.322327    0.067653    -1.015851    13.754715    -0.222679    3.948922    13.497616    -2.049541    2.496960    4.542724    -5.543202    5.382794    -12.221006    16.474407    -8.566291    -8.630950    1.349576    2.282477    -7.239450    -30.637653    17.925411    -58.901566    -3.850974    -30.452888    -110.364273    -14.612365    -33.046570    -19.265146    -0.527884    14.855268    4.526206    33.742405    14.356945    56.148880    -42.776142    -33.445812    33.413769    7.527979    -19.419954    32.375969    1.641826    -34.989876    -28.045599    -14.307699    36.679695    -20.418098    -6.757673    -10.588275    37.623547    0.000000    0.000000    0.000000    1.824965    6.623453    -25.067043    3.605128    35.983673    -6.239589    2.732105    -36.620945    -10.399397    0.000000    0.000000    0.000000    
-31.887001    148.643250    -31.342876    0.072061    -1.014242    13.863727    -0.229654    3.920482    13.479118    -2.049004    2.511506    4.536747    -5.605493    5.357663    -12.307323    16.578403    -8.539390    -8.695084    1.367458    2.266855    -7.251932    -30.603638    17.894501    -58.949402    -3.874072    -30.414677    -110.365166    -14.515665    -33.054928    -19.233381    -0.515103    14.841341    4.508325    33.822540    14.367309    56.045033    -42.775185    -33.452717    33.482113    7.479081    -19.414034    32.370163    1.611942    -35.017056    -28.085140    -14.301056    36.655102    -20.458988    -6.768045    -10.532825    37.614937    0.000000    0.000000    0.000000    1.867899    6.603472    -25.134169    3.591341    36.010700    -6.276232    2.745434    -36.646572    -10.399912    0.000000    0.000000    0.000000    
-31.941891    148.623581    -31.362545    0.078303    -1.008382    13.981627    -0.224108    3.892486    13.459184    -2.058539    2.520319    4.530554    -5.668231    5.367835    -12.405334    16.680357    -8.544145    -8.769217    1.382605    2.255252    -7.264709    -30.558939    17.887541    -59.006947    -3.896415    -30.408785    -110.366325    -14.476586    -33.082073    -19.233057    -0.494313    14.854181    4.463104    33.873013    14.394629    55.982349    -42.827328    -33.470985    33.488743    7.497989    -19.409094    32.375664    1.561353    -35.042091    -28.154274    -14.276097    36.628593    -20.507515    -6.801914    -10.498906    37.604801    0.000000    0.000000    0.000000    1.904242    6.581406    -25.197725    3.591790    36.036270    -6.302179    2.733488    -36.673985    -10.442410    0.000000    0.000000    0.000000    
-31.995356    148.602814    -31.376945    0.088101    -1.006636    14.103849    -0.237186    3.868657    13.438510    -2.030168    2.523588    4.522960    -5.727200    5.390358    -12.486045    16.741102    -8.571037    -8.832023    1.367531    2.228613    -7.288564    -30.525948    17.886040    -59.036713    -3.915378    -30.389595    -110.370308    -14.473999    -33.084522    -19.255285    -0.501416    14.850545    4.428870    33.936367    14.449084    55.899017    -42.900196    -33.514557    33.487625    7.523170    -19.428846    32.358681    1.505993    -35.063274    -28.221142    -14.254602    36.612408    -20.566025    -6.813534    -10.469423    37.595341    0.000000    0.000000    0.000000    1.937937    6.564925    -25.262283    3.592935    36.069275    -6.332288    2.719970    -36.698174    -10.471500    0.000000    0.000000    0.000000    
-32.045631    148.580475    -31.376019    0.104120    -1.018929    14.224178    -0.254826    3.854594    13.413283    -2.002612    2.519074    4.513674    -5.775744    5.443953    -12.555818    16.800718    -8.619092    -8.883264    1.349047    2.225616    -7.309104    -30.484018    17.879375    -59.073963    -3.913369    -30.379177    -110.366722    -14.412713    -33.081509    -19.247343    -0.500228    14.870511    4.411197    34.003460    14.472382    55.810413    -42.948818    -33.522869    33.495495    7.496679    -19.429384    32.310322    1.450935    -35.059612    -28.296383    -14.236588    36.580685    -20.623962    -6.826862    -10.447134    37.589363    0.000000    0.000000    0.000000    1.976004    6.573420    -25.325891    3.581008    36.085659    -6.348536    2.704275    -36.738125    -10.522982    0.000000    0.000000    0.000000    
-32.090385    148.562012    -31.374317    0.122917    -1.022791    14.341361    -0.276128    3.836277    13.388907    -1.985349    2.516110    4.504901    -5.800096    5.476802    -12.626694    16.836246    -8.647367    -8.945080    1.345849    2.244771    -7.326900    -30.468824    17.835089    -59.125061    -3.944592    -30.321203    -110.382217    -14.366747    -33.072205    -19.235914    -0.473725    14.888914    4.368931    34.031960    14.525150    55.756199    -43.041531    -33.538776    33.446999    7.478125    -19.444807    32.262890    1.370169    -35.049797    -28.364553    -14.211746    36.560997    -20.678761    -6.771334    -10.432639    37.659374    0.000000    0.000000    0.000000    2.002852    6.581381    -25.356863    3.608059    36.089298    -6.392700    2.683405    -36.770748    -10.581817    0.000000    0.000000    0.000000    
-32.133179    148.547043    -31.369120    0.149548    -1.024786    14.463019    -0.299394    3.809364    13.361939    -1.977812    2.529779    4.495751    -5.818705    5.483243    -12.692210    16.872433    -8.646770    -9.004465    1.350181    2.249966    -7.348874    -30.432888    17.817217    -59.175610    -3.951541    -30.295843    -110.383911    -14.343949    -33.057037    -19.256697    -0.445312    14.903343    4.339693    34.075516    14.565759    55.688599    -43.122826    -33.553360    33.405102    7.447847    -19.462549    32.222870    1.313557    -35.067360    -28.444389    -14.201774    36.535301    -20.727127    -6.836761    -10.378833    37.588554    0.000000    0.000000    0.000000    2.026303    6.584414    -25.400261    3.613959    36.102043    -6.447491    2.678949    -36.797863    -10.622174    0.000000    0.000000    0.000000    
